<?xml version="1.0" encoding="UTF-8" standalone="no"?>
<!-- Generator: Adobe Illustrator 23.0.6, SVG Export Plug-In . SVG Version: 6.00 Build 0)  -->

<svg
    version="1.1"
    id="Laag_1"
    x="0px"
    y="0px"
    viewBox="0 0 596.56271 153.2"
    xml:space="preserve"
    sodipodi:docname="EVAJIG - logo - RGB.svg"
    inkscape:version="1.2.2 (b0a8486541, 2022-12-01)"
    width="596.56268"
    height="153.2"
    inkscape:export-filename="EVAJIG - logo - RGB.png"
    inkscape:export-xdpi="96"
    inkscape:export-ydpi="96"
    xmlns:inkscape="http://www.inkscape.org/namespaces/inkscape"
    xmlns:sodipodi="http://sodipodi.sourceforge.net/DTD/sodipodi-0.dtd"
    xmlns="http://www.w3.org/2000/svg"
    xmlns:svg="http://www.w3.org/2000/svg"><defs
   id="defs250" /><sodipodi:namedview
   id="namedview248"
   pagecolor="#ffffff"
   bordercolor="#666666"
   borderopacity="1.0"
   inkscape:showpageshadow="2"
   inkscape:pageopacity="0.0"
   inkscape:pagecheckerboard="0"
   inkscape:deskcolor="#d1d1d1"
   showgrid="false"
   inkscape:zoom="2.2181485"
   inkscape:cx="196.56033"
   inkscape:cy="62.21405"
   inkscape:window-width="1908"
   inkscape:window-height="2091"
   inkscape:window-x="0"
   inkscape:window-y="0"
   inkscape:window-maximized="1"
   inkscape:current-layer="Laag_1" />
<style
   type="text/css"
   id="style233">
	.st0{fill:#007E32;}
	.st1{fill:#3D4748;}
</style>
<path
   class="st0"
   d="M 28.3,0 39.2,36.9 H 0 V 0 Z M 0,57.2 v 37 h 56 l -10.9,-37 z m 0,59 v 37 h 73.3 l -10.9,-37 z m 104.6,36.9 h 52.6 L 202.2,0 h -47 L 131,102.4 106.7,0 h -47 z M 236.9,0 h -1.7 l -18.5,63.1 7.6,32.4 h -17.1 l -10.9,36.9 h 36.3 l 4.6,20.7 H 282 Z"
   id="path235"
   sodipodi:nodetypes="ccccccccccccccccccccccccccccccccc" />
<rect
   x="406.39999"
   y="4.7683717e-08"
   class="st1"
   width="43.399994"
   height="153.10001"
   id="rect237"
   ry="0" />
<g
   id="g245"
   transform="translate(0,-2.7)">
	<path
   id="path239"
   class="st1"
   d="m 509.15039,2.7582528 c -16.11571,0 -32.9408,12.3319962 -32.9408,31.7148292 v 84.502138 c 0,17.76268 18.62739,36.86839 37.81848,36.86839 h 49.23474 c 16.18858,0 31.76459,-9.33393 31.76459,-26.98099 V 85.750068 c 0,-9.729811 -7.69678,-14.286719 -14.78187,-14.286719 h -39.75064 l 10.11105,33.979291 h 11.30858 c 0,0 0.1396,0.1988 0.1396,4.73005 0,6.18279 -4.34467,12.02846 -13.36206,12.02846 h -18.60332 c -13.33662,0 -18.80797,-7.3812 -18.785,-20.64135 0.0173,-10.008492 0,-33.917671 0,-48.84288 0,-10.894004 5.27726,-15.489227 18.785,-15.489227 h 13.01253 c 15.00919,0 17.03256,8.248873 16.92265,19.860797 H 595.0274 V 33.4453 c 0,-14.766947 -11.48514,-30.6870472 -33.34239,-30.6870472 z"
   sodipodi:nodetypes="sssssssscccsssssssccsss"
   style="stroke-width:1.01306" />
	
	<path
   class="st1"
   d="m 379.3,2.8 h -39 c -0.17601,30.978233 -0.19099,64.724744 0,93.1 0,19.32121 -6.64941,24.21179 -20.3,24.6 h -19.1 l 10.4,35.3 h 21.3 c 30.1,0 46.7,-18.23923 46.7,-41.5"
   id="path243"
   sodipodi:nodetypes="ccccccsc" />
</g>
</svg>